HIERARCHY
ROOT hip
{
  OFFSET 0 0 0
  CHANNELS 6 Xposition Yposition Zposition Zrotation Yrotation Xrotation
  JOINT abdomen
  {
    OFFSET 0 20.6881 -0.73152
    CHANNELS 3 Zrotation Xrotation Yrotation
    JOINT chest
    {
      OFFSET 0 11.7043 -0.48768
      CHANNELS 3 Zrotation Xrotation Yrotation
      JOINT neck
      {
        OFFSET 0 22.1894 -2.19456
        CHANNELS 3 Zrotation Xrotation Yrotation
        JOINT head
        {
          OFFSET -0.24384 7.07133 1.2192
          CHANNELS 3 Zrotation Xrotation Yrotation
          JOINT leftEye
          {
            OFFSET 4.14528 8.04674 8.04672
            CHANNELS 3 Zrotation Xrotation Yrotation
            End Site
            {
              OFFSET 1 0 0
            }
          }
          JOINT rightEye
          {
            OFFSET -3.6576 8.04674 8.04672
            CHANNELS 3 Zrotation Xrotation Yrotation
            End Site
            {
              OFFSET 1 0 0
            }
          }
        }
      }
      JOINT rCollar
      {
        OFFSET -2.68224 19.2634 -4.8768
        CHANNELS 3 Zrotation Xrotation Yrotation
        JOINT rShldr
        {
          OFFSET -8.77824 -1.95073 1.46304
          CHANNELS 3 Zrotation Xrotation Yrotation
          JOINT rForeArm
          {
            OFFSET -28.1742 -1.7115 0.48768
            CHANNELS 3 Zrotation Xrotation Yrotation
            JOINT rHand
            {
              OFFSET -22.5879 0.773209 7.07136
              CHANNELS 3 Zrotation Xrotation Yrotation
              JOINT rThumb1
              {
                OFFSET -1.2192 -0.487915 3.41376
                CHANNELS 3 Zrotation Xrotation Yrotation
                JOINT rThumb2
                {
                  OFFSET -3.37035 -0.52449 3.41376
                  CHANNELS 3 Zrotation Xrotation Yrotation
                  End Site
                  {
                    OFFSET -1.78271 -1.18214 1.43049
                  }
                }
              }
              JOINT rIndex1
              {
                OFFSET -7.75947 0.938293 5.60832
                CHANNELS 3 Zrotation Xrotation Yrotation
                JOINT rIndex2
                {
                  OFFSET -2.54057 -0.884171 1.56538
                  CHANNELS 3 Zrotation Xrotation Yrotation
                  End Site
                  {
                    OFFSET -1.62519 -0.234802 1.16502
                  }
                }
              }
              JOINT rMid1
              {
                OFFSET -8.24714 1.18213 3.41376
                CHANNELS 3 Zrotation Xrotation Yrotation
                JOINT rMid2
                {
                  OFFSET -3.10165 -0.590103 1.0647
                  CHANNELS 3 Zrotation Xrotation Yrotation
                  End Site
                  {
                    OFFSET -2.48547 -0.328903 0.83742
                  }
                }
              }
              JOINT rRing1
              {
                OFFSET -8.82822 0.546677 1.51678
                CHANNELS 3 Zrotation Xrotation Yrotation
                JOINT rRing2
                {
                  OFFSET -2.60934 -0.819778 -0.0198488
                  CHANNELS 3 Zrotation Xrotation Yrotation
                  End Site
                  {
                    OFFSET -2.33842 -0.294052 0.168128
                  }
                }
              }
              JOINT rPinky1
              {
                OFFSET -8.27202 -0.0477905 -0.4584
                CHANNELS 3 Zrotation Xrotation Yrotation
                JOINT rPinky2
                {
                  OFFSET -1.82734 -0.647385 -0.700984
                  CHANNELS 3 Zrotation Xrotation Yrotation
                  End Site
                  {
                    OFFSET -1.69225 -0.51767 -0.607171
                  }
                }
              }
            }
          }
        }
      }
      JOINT lCollar
      {
        OFFSET 2.68224 19.2634 -4.8768
        CHANNELS 3 Zrotation Xrotation Yrotation
        JOINT lShldr
        {
          OFFSET 8.77824 -1.95073 1.46304
          CHANNELS 3 Zrotation Xrotation Yrotation
          JOINT lForeArm
          {
            OFFSET 28.1742 -1.7115 0.48768
            CHANNELS 3 Zrotation Xrotation Yrotation
            JOINT lHand
            {
              OFFSET 22.5879 0.773209 7.07136
              CHANNELS 3 Zrotation Xrotation Yrotation
              JOINT lThumb1
              {
                OFFSET 1.2192 -0.487915 3.41376
                CHANNELS 3 Zrotation Xrotation Yrotation
                JOINT lThumb2
                {
                  OFFSET 3.37035 -0.52449 3.41376
                  CHANNELS 3 Zrotation Xrotation Yrotation
                  End Site
                  {
                    OFFSET 1.78271 -1.18214 1.43049
                  }
                }
              }
              JOINT lIndex1
              {
                OFFSET 7.75947 0.938293 5.60832
                CHANNELS 3 Zrotation Xrotation Yrotation
                JOINT lIndex2
                {
                  OFFSET 2.54057 -0.884171 1.56538
                  CHANNELS 3 Zrotation Xrotation Yrotation
                  End Site
                  {
                    OFFSET 1.62519 -0.234802 1.16502
                  }
                }
              }
              JOINT lMid1
              {
                OFFSET 8.24714 1.18213 3.41376
                CHANNELS 3 Zrotation Xrotation Yrotation
                JOINT lMid2
                {
                  OFFSET 3.10165 -0.590103 1.0647
                  CHANNELS 3 Zrotation Xrotation Yrotation
                  End Site
                  {
                    OFFSET 2.48547 -0.328903 0.83742
                  }
                }
              }
              JOINT lRing1
              {
                OFFSET 8.82822 0.546677 1.51678
                CHANNELS 3 Zrotation Xrotation Yrotation
                JOINT lRing2
                {
                  OFFSET 2.60934 -0.819778 -0.0198488
                  CHANNELS 3 Zrotation Xrotation Yrotation
                  End Site
                  {
                    OFFSET 2.33842 -0.294052 0.168128
                  }
                }
              }
              JOINT lPinky1
              {
                OFFSET 8.27202 -0.0477905 -0.4584
                CHANNELS 3 Zrotation Xrotation Yrotation
                JOINT lPinky2
                {
                  OFFSET 1.82734 -0.647385 -0.700984
                  CHANNELS 3 Zrotation Xrotation Yrotation
                  End Site
                  {
                    OFFSET 1.69225 -0.51767 -0.607171
                  }
                }
              }
            }
          }
        }
      }
    }
  }
  JOINT rButtock
  {
    OFFSET -8.77824 4.35084 1.2192
    CHANNELS 3 Zrotation Xrotation Yrotation
    JOINT rThigh
    {
      OFFSET 0 -1.70687 -2.19456
      CHANNELS 3 Zrotation Xrotation Yrotation
      JOINT rShin
      {
        OFFSET 0 -36.8199 0.73152
        CHANNELS 3 Zrotation Xrotation Yrotation
        JOINT rFoot
        {
          OFFSET 0.73152 -45.1104 -5.12064
          CHANNELS 3 Zrotation Xrotation Yrotation
          End Site
          {
            OFFSET -1.1221 -3.69964 12.103
          }
        }
      }
    }
  }
  JOINT lButtock
  {
    OFFSET 8.77824 4.35084 1.2192
    CHANNELS 3 Zrotation Xrotation Yrotation
    JOINT lThigh
    {
      OFFSET 0 -1.70687 -2.19456
      CHANNELS 3 Zrotation Xrotation Yrotation
      JOINT lShin
      {
        OFFSET 0 -36.8199 0.73152
        CHANNELS 3 Zrotation Xrotation Yrotation
        JOINT lFoot
        {
          OFFSET -0.73152 -45.1104 -5.12064
          CHANNELS 3 Zrotation Xrotation Yrotation
          End Site
          {
            OFFSET 1.1221 -3.69964 12.103
          }
        }
      }
    }
  }
}
MOTION
Frames:	8
Frame Time:	0.03333
0.0 0.0 0.0 0.0 0.0 0.0 0.0 0.0 0.0 0.0 0.0 0.0 0.0 0.0 0.0 0.0 0.0 0.0 0.0 0.0 0.0 0.0 0.0 0.0 0.0 0.0 0.0 0.0 0.0 0.0 0.0 0.0 0.0 0.0 0.0 0.0 0.0 0.0 0.0 0.0 0.0 0.0 0.0 0.0 0.0 0.0 0.0 0.0 0.0 0.0 0.0 0.0 0.0 0.0 0.0 0.0 0.0 0.0 0.0 0.0 0.0 0.0 0.0 0.0 0.0 0.0 0.0 0.0 0.0 0.0 0.0 0.0 0.0 0.0 0.0 0.0 0.0 0.0 0.0 0.0 0.0 0.0 0.0 0.0 0.0 0.0 0.0 0.0 0.0 0.0 0.0 0.0 0.0 0.0 0.0 0.0 0.0 0.0 0.0 0.0 0.0 0.0 0.0 0.0 0.0 0.0 0.0 0.0 0.0 0.0 0.0 0.0 0.0 0.0 0.0 0.0 0.0 0.0 0.0 0.0 0.0 0.0 0.0 0.0 0.0 0.0 0.0 0.0 0.0 0.0 0.0 0.0
-4.7143 57.8681 -7.2175 175.186719 -8.196496 -169.954808 -10.75139 13.964922 2.184209 7.47267 -10.149221 -4.59891 -4.728769 12.424131 -8.969635 12.326385 -28.576083 18.231093 0.001182 -0.0 -0.001358 0.000882 -0.0 -0.002381 -158.467736 -30.055476 166.920227 122.979189 -16.914328 172.692397 -178.076426 32.294594 54.500274 -159.29214 17.569662 136.758587 -177.74835 -15.3239 89.569492 -43.566826 -18.136524 3.929272 -46.209718 39.651813 36.318922 -164.551675 -11.288681 112.141061 -0.057952 0.167809 0.032261 -168.899469 -22.164633 144.331717 -145.12189 1.975385 -179.748934 10.154174 0.992873 -8.867582 -149.547759 27.153332 -145.54711 -7.072229 -18.928528 -9.565753 0.005941 0.033304 -0.00743 -60.771568 -0.708893 -35.392474 -95.455106 -32.577048 -63.029712 -179.2795 32.27487 -152.830192 1.58248 1.55673 -0.264096 66.721211 27.360138 -61.3497 64.085849 43.039159 -52.302047 118.506831 41.698151 -89.784638 -23.901017 -61.33434 -1.396953 172.312731 -31.321509 -143.976193 74.838823 72.961638 -92.827707 159.234489 26.108689 -172.842224 -7.223255 22.274021 -6.416217 29.013446 -44.245205 29.173915 -0.000221 0.000792 0.000284 -16.322356 -33.897312 -0.0 141.47969 67.462604 -44.64272 -45.739807 86.601161 -27.755715 -0.000107 0.001744 -0.0 12.940929 -49.620196 10.095426 -57.587541 62.645119 16.885566 84.199294 -86.463441 166.740718
-7.1269 57.6088 -12.0735 173.668647 -10.793894 -171.866281 -15.169698 15.576623 45.275975 0.097859 -13.417024 -48.279442 -7.803593 14.46771 -28.639379 24.889862 -22.743258 37.505026 0.00135 0.0 0.000435 0.001082 -0.0 -0.004148 4.239324 -44.742771 -8.647592 -100.254877 -18.100284 -116.422343 -93.53022 18.636523 -91.347209 176.789736 -68.731872 153.554667 -85.829417 38.630436 47.955437 1.040149 -16.622492 25.274903 -4.706232 7.223877 2.856072 -156.713812 -5.477909 109.869759 -160.673059 -6.667699 143.245799 -163.290008 -4.786295 142.966205 -0.006528 3.557398 1.117572 -155.711877 -1.222382 171.998727 -156.864595 55.541551 -150.329233 15.960861 43.959526 6.459372 -0.162837 -0.990088 0.218357 -68.527827 -9.877565 -37.472078 85.220521 42.147873 -93.414552 -12.433967 -15.900015 -9.485868 12.926767 12.05132 -3.31047 -41.781761 -50.915663 8.893462 151.354045 -17.158436 -121.132461 163.805812 -20.777775 -119.500107 -5.892874 -18.352081 2.542245 148.226356 31.627612 -134.516924 145.122213 1.893395 179.724318 55.232665 87.57784 -68.294357 -7.92865 24.811489 -7.003288 20.486644 -37.681109 20.892338 179.975261 75.750969 0.016927 171.051364 25.145275 -78.066685 -107.032045 5.492435 67.921762 94.301296 -8.539771 -8.114028 179.99604 75.748595 0.004086 -175.58552 29.198246 175.232259 63.646681 -72.413693 -35.076634 141.384564 -48.587667 31.036111
-9.579799999999999 57.1894 -17.4718 172.18218 -14.701771 -173.700776 -12.687893 15.30919 -94.283626 7.39959 6.2038 90.473893 -6.589893 13.943559 -20.40073 18.494167 -25.372821 24.271207 -0.004978 0.0 -0.001166 0.000838 -0.0 -0.00057 -44.041325 64.186248 46.711939 41.904724 22.690148 58.985935 -134.106485 20.774092 11.633818 -171.713963 -24.313485 149.191687 -176.598586 -14.212989 89.691374 177.820126 -18.409751 98.032456 9.087384 -15.965659 -4.196789 0.921493 16.737988 3.318868 -173.038899 -44.087577 144.930937 3.308943 -0.637576 0.233067 -145.119336 0.268103 -179.211742 -155.555573 1.336137 -179.39199 31.496908 83.083018 6.665494 -25.845071 -40.674579 -25.838882 154.820739 -73.937646 179.838802 84.022498 -36.57087 119.282865 3.053593 26.306757 61.105755 -129.93203 -54.52941 -121.098026 5.432712 5.26536 -1.077806 -12.005241 -14.43575 5.244951 140.683958 1.505671 -116.183189 -1.787145 14.267238 6.513273 -0.541092 -1.590111 0.293059 -91.949871 -78.578773 -62.956825 145.117888 0.226397 179.200043 156.339935 12.419655 -179.301425 157.329352 57.246261 150.512719 -21.55886 58.944145 -6.495516 0.01095 0.000212 0.01095 -13.366787 -60.935561 -15.208576 178.787357 66.070407 -1.379663 31.896161 13.701137 172.261828 3.3e-05 -0.0003 -4.3e-05 -0.185818 -39.546123 180.0 61.159658 -76.147625 -21.631307 -53.439783 27.686814 -45.137534
-11.5427 57.118 -22.941200000000002 170.599609 -20.153366 -175.197392 -14.372315 14.658107 -134.641045 0.052392 9.18815 131.507662 4.590618 14.456404 45.188679 -24.616064 -16.057147 -54.337562 0.004472 -0.0 -0.003208 0.004472 -0.0 -0.003208 -44.040418 64.186843 46.710767 -163.250752 -27.718134 109.187575 -17.436231 -77.321049 -170.364049 -161.676203 11.544041 139.20486 -172.745704 -10.423804 89.929098 -39.282572 -22.752707 5.189137 -152.106359 -18.556903 121.366193 0.908636 19.598913 -5.421261 -10.976408 25.789643 7.640854 -4.871993 21.331468 4.434946 0.004914 1.770379 0.556648 -154.323441 -65.015088 -178.251211 -53.571494 -50.23892 -52.256705 -145.44087 8.567971 -142.261302 144.25411 36.998078 -148.759648 -131.416885 -14.54483 -178.975369 175.399379 -21.180672 -112.876825 -111.342153 -58.596337 -108.831836 169.98473 -7.667233 -89.939179 77.692894 4.898458 -26.240502 -159.642423 -69.97349 -102.397544 -28.296373 -23.231696 8.370732 -7.432965 -23.301036 2.922767 -13.761052 -31.968054 1.287613 -0.000424 -0.01841 0.006343 -10.32403 0.112626 0.050328 -42.031143 85.991711 2.812482 127.818027 -30.453157 124.742914 -0.00022 -0.000663 -0.0 -23.587514 -68.923694 60.793956 104.187462 2.609128 71.207376 27.656125 23.880908 -167.687199 -0.00022 -0.000663 -0.0 -4.615571 -31.633084 180.0 30.526001 -77.217539 -71.528044 -82.852138 20.933423 -19.311865
-13.0578 57.65369999999999 -27.9879 170.466156 -26.50127 -176.532307 -14.270303 18.587711 -0.0 8.565238 -10.394191 -1.561466 -11.804585 18.190655 -46.122452 29.097318 -13.027647 38.384303 0.001451 -0.0 -0.00177 0.001867 0.0 0.003837 -59.830399 -86.721548 -81.631195 98.534373 47.031306 -81.114014 1.656083 2.465457 116.993182 -9.584192 -17.206526 -5.163649 -0.441273 0.435421 0.069332 -138.665339 -42.675049 119.014273 -146.661458 -8.598636 119.301426 7.874798 5.013051 -8.951261 68.983726 -80.15407 40.577321 2.472902 1.610936 0.386131 0.004176 1.854717 0.58058 10.157433 0.328701 -0.022634 -3.812604 -9.064295 -3.560811 -21.23074 -39.043065 -22.199389 -4.224804 -44.097172 8.51585 -77.964108 12.606543 2.057647 30.399898 54.17905 -69.183271 13.835418 68.135217 -18.827247 -83.253938 -50.258321 -33.615896 31.899138 5.688256 8.146984 2.685636 4.226699 -1.584998 -10.31966 1.152054 0.360614 158.521848 -0.19255 -142.143762 163.268806 -4.790309 -142.964305 0.014948 -1.323109 0.41615 -3.424049 44.720945 -8.797051 143.938316 8.26502 140.720051 83.955774 -52.147328 83.439974 179.99786 75.750184 0.001464 171.770142 2.70171 -108.050784 -83.293093 -12.980698 -170.729755 -104.63095 -58.864659 160.734995 -179.996148 75.749635 -0.003974 173.183186 51.802293 -143.761651 -39.121473 -68.056404 67.576342 -178.185706 62.560745 -87.599305
-14.6576 58.7597 -32.6224 170.396792 -31.916577 -177.884901 -11.492344 17.705676 3.076764 8.473515 -10.137934 -3.014169 3.301498 17.61562 54.219262 -26.761799 -9.442668 -74.702072 -0.003279 0.0 -0.001544 0.002773 -0.0 -0.000757 3.191821 -25.838912 -5.074169 -141.268522 -69.650776 150.051287 -62.953215 11.566497 -172.033567 140.558192 -79.374385 120.402293 11.509734 -11.486844 -0.622793 -43.69491 30.927352 33.85528 -138.491879 4.896042 114.86516 45.030141 -55.056551 1.906644 -145.28794 29.524532 132.692836 80.966422 -77.668595 52.390021 -0.00871 3.559205 1.118467 -156.400154 -13.732976 173.488389 -25.539062 -38.086746 -24.599581 -158.229136 52.58238 -149.46678 142.586813 40.121534 -146.978633 159.610935 61.603723 -95.11546 47.815971 -54.137523 138.294312 -81.322095 -61.435499 -75.876384 94.791997 37.828486 -54.283486 69.444513 -2.70149 -53.157232 19.172157 24.114105 -13.380743 177.262965 -30.76906 -108.10441 -89.036116 -81.392045 -59.761334 144.540915 37.1946 -131.403121 0.008339 -0.831023 0.262073 155.770614 -54.271529 -178.955263 156.379642 53.734533 150.118284 81.861297 -52.785583 80.645926 179.999967 75.749039 2.9e-05 168.080894 7.98266 1.441214 -24.862287 60.458247 -51.459748 140.314427 -27.292205 -85.714519 179.999987 75.749039 1.4e-05 172.233333 59.385412 140.818023 66.169274 -29.187685 176.324014 68.736856 -41.392743 134.760491
-16.024 59.7108 -36.949 169.332528 -36.435591 -178.543235 -7.642109 14.516582 -92.761754 6.04704 6.525106 93.592766 -0.524471 15.57996 33.964691 -17.738969 -16.456375 -60.008951 0.000375 0.0 0.002636 0.000106 -0.0 -0.002919 -142.973981 39.432148 147.391304 -39.723415 18.143458 -5.887755 177.62417 19.273648 -106.549667 -10.621432 5.25745 -1.821275 93.02833 -51.083878 40.501055 -137.419616 18.954635 99.06284 -26.600501 30.072768 19.414711 -163.800157 -11.765553 110.986352 -36.036109 51.723055 29.832455 10.048244 -20.326458 -1.44616 -145.110368 -0.668191 -178.918194 -71.226863 -78.000806 -92.7934 -82.642622 -51.01685 -81.046308 11.430991 24.594324 4.819711 3.768232 17.920841 -4.642046 84.963557 2.841928 -158.361093 -153.524637 -41.142513 115.933205 16.646371 23.913599 -2.142341 5.132283 4.978682 -1.006305 153.626985 -62.094365 -115.378399 152.316952 -18.947823 -121.429374 179.897363 -46.863451 -113.677899 -6.53399 -20.414799 2.717574 -144.585164 -74.654547 -112.893531 145.099108 -1.521313 178.650589 152.257229 76.082916 -167.124014 26.564108 -38.861515 25.604486 147.20518 13.603959 143.824545 -0.000699 -0.000218 0.000899 -32.271215 -59.475929 143.756292 19.098971 -39.670844 -152.073058 -109.544674 -44.822057 46.619889 0.002239 -0.001239 0.00112 -1.404818 -7.31427 -0.206573 -23.40444 62.048386 -70.307708 -136.798547 55.215068 -129.618583
